<?xml version="1.0" standalone="no"?>
<!DOCTYPE svg PUBLIC "-//W3C//DTD SVG 20010904//EN"
 "http://www.w3.org/TR/2001/REC-SVG-20010904/DTD/svg10.dtd">
<svg version="1.0" xmlns="http://www.w3.org/2000/svg"
 width="260.000000pt" height="260.000000pt" viewBox="0 0 260.000000 260.000000"
 preserveAspectRatio="xMidYMid meet">
<metadata>
Created by potrace 1.11, written by Peter Selinger 2001-2013
</metadata>
<g transform="translate(0.000000,260.000000) scale(0.100000,-0.100000)"
fill="#000000" stroke="none">
<path d="M1140 2588 c-88 -13 -102 -15 -150 -26 -254 -61 -512 -220 -676 -418
-21 -26 -44 -52 -49 -58 -26 -27 -92 -137 -131 -215 -136 -277 -165 -570 -89
-911 2 -8 15 -48 29 -88 129 -372 425 -668 801 -799 79 -28 72 -26 180 -49 86
-19 314 -25 418 -12 563 72 1024 526 1111 1093 17 114 13 334 -9 440 -98 478
-425 846 -885 993 -52 16 -126 35 -165 42 -85 15 -309 20 -385 8z"/>
</g>
</svg>
